<mxfile host="app.diagrams.net" modified="2022-04-21T16:21:30.908Z" agent="5.0 (Macintosh; Intel Mac OS X 10_15_7) AppleWebKit/537.36 (KHTML, like Gecko) Chrome/100.0.4896.127 Safari/537.36" etag="0qUQUF7BGSiy_6XefQmj" version="17.4.5" type="github">
  <diagram id="4VKI4w-LecAPys9vRDwE" name="Page-1">
    <mxGraphModel dx="2493" dy="1560" grid="1" gridSize="10" guides="1" tooltips="1" connect="1" arrows="1" fold="1" page="1" pageScale="1" pageWidth="1100" pageHeight="850" math="0" shadow="0">
      <root>
        <mxCell id="0" />
        <mxCell id="1" parent="0" />
        <mxCell id="Ge7aqxbjUbuo9fXOc1NT-1" value="" style="rounded=0;whiteSpace=wrap;html=1;fillColor=#BFBFBF;" vertex="1" parent="1">
          <mxGeometry x="-470" y="-450" width="2870" height="1380" as="geometry" />
        </mxCell>
        <mxCell id="Ge7aqxbjUbuo9fXOc1NT-5" value="" style="group" vertex="1" connectable="0" parent="1">
          <mxGeometry x="80" y="-120" width="110" height="150" as="geometry" />
        </mxCell>
        <mxCell id="Ge7aqxbjUbuo9fXOc1NT-4" value="" style="ellipse;whiteSpace=wrap;html=1;aspect=fixed;fillColor=#A680B8;" vertex="1" parent="Ge7aqxbjUbuo9fXOc1NT-5">
          <mxGeometry width="109.99999999999999" height="109.99999999999999" as="geometry" />
        </mxCell>
        <mxCell id="Ge7aqxbjUbuo9fXOc1NT-3" value="" style="shape=image;html=1;verticalAlign=top;verticalLabelPosition=bottom;labelBackgroundColor=#ffffff;imageAspect=0;aspect=fixed;image=https://cdn2.iconfinder.com/data/icons/social-hand-drawn-icons/64/social_39-128.png;fillColor=#333333;" vertex="1" parent="Ge7aqxbjUbuo9fXOc1NT-5">
          <mxGeometry x="15.88888888888889" y="18.77777777777778" width="78.22222222222221" height="78.22222222222221" as="geometry" />
        </mxCell>
        <mxCell id="Ge7aqxbjUbuo9fXOc1NT-110" value="@Noop-Inc is the base of operations in GitHub" style="text;html=1;strokeColor=none;fillColor=none;align=center;verticalAlign=middle;whiteSpace=wrap;rounded=0;labelBackgroundColor=#FFFFFF;sketch=0;fontFamily=Comic Sans MS;fontSize=10;" vertex="1" parent="Ge7aqxbjUbuo9fXOc1NT-5">
          <mxGeometry x="-2.5" y="120" width="115" height="30" as="geometry" />
        </mxCell>
        <mxCell id="Ge7aqxbjUbuo9fXOc1NT-167" style="edgeStyle=orthogonalEdgeStyle;curved=1;orthogonalLoop=1;jettySize=auto;html=1;entryX=0.5;entryY=0;entryDx=0;entryDy=0;dashed=1;fontFamily=Comic Sans MS;fontSize=8;startArrow=none;startFill=0;endArrow=classic;endFill=1;" edge="1" parent="1" source="Ge7aqxbjUbuo9fXOc1NT-11" target="Ge7aqxbjUbuo9fXOc1NT-78">
          <mxGeometry relative="1" as="geometry">
            <Array as="points">
              <mxPoint x="2040" y="310" />
            </Array>
          </mxGeometry>
        </mxCell>
        <mxCell id="Ge7aqxbjUbuo9fXOc1NT-11" value="" style="ellipse;shape=cloud;whiteSpace=wrap;html=1;fontFamily=Comic Sans MS;fillColor=#66B2FF;" vertex="1" parent="1">
          <mxGeometry x="1010" y="40" width="820" height="400" as="geometry" />
        </mxCell>
        <mxCell id="Ge7aqxbjUbuo9fXOc1NT-12" value="" style="ellipse;shape=cloud;whiteSpace=wrap;html=1;fontFamily=Comic Sans MS;fillColor=#66B2FF;rotation=-180;" vertex="1" parent="1">
          <mxGeometry x="830" y="500" width="730" height="390" as="geometry" />
        </mxCell>
        <mxCell id="Ge7aqxbjUbuo9fXOc1NT-20" value="" style="group;fillColor=#FFFF99;rotation=90;" vertex="1" connectable="0" parent="1">
          <mxGeometry x="1280" y="-460" width="140" height="210" as="geometry" />
        </mxCell>
        <mxCell id="Ge7aqxbjUbuo9fXOc1NT-13" value="" style="outlineConnect=0;dashed=0;verticalLabelPosition=bottom;verticalAlign=top;align=center;html=1;shape=mxgraph.aws3.ami;fillColor=#F58534;gradientColor=none;fontFamily=Comic Sans MS;rotation=90;" vertex="1" parent="Ge7aqxbjUbuo9fXOc1NT-20">
          <mxGeometry x="115" y="77" width="42" height="55.125" as="geometry" />
        </mxCell>
        <mxCell id="Ge7aqxbjUbuo9fXOc1NT-14" value="" style="outlineConnect=0;dashed=0;verticalLabelPosition=bottom;verticalAlign=top;align=center;html=1;shape=mxgraph.aws3.ami;fillColor=#F58534;gradientColor=none;fontFamily=Comic Sans MS;rotation=90;" vertex="1" parent="Ge7aqxbjUbuo9fXOc1NT-20">
          <mxGeometry x="49" y="77" width="42" height="55.125" as="geometry" />
        </mxCell>
        <mxCell id="Ge7aqxbjUbuo9fXOc1NT-15" value="" style="outlineConnect=0;dashed=0;verticalLabelPosition=bottom;verticalAlign=top;align=center;html=1;shape=mxgraph.aws3.ami;fillColor=#F58534;gradientColor=none;fontFamily=Comic Sans MS;rotation=90;" vertex="1" parent="Ge7aqxbjUbuo9fXOc1NT-20">
          <mxGeometry x="-17" y="77" width="42" height="55.125" as="geometry" />
        </mxCell>
        <mxCell id="Ge7aqxbjUbuo9fXOc1NT-16" value="CIS Hardened Base AMIs   " style="swimlane;horizontal=0;fontFamily=Comic Sans MS;fillColor=#999999;rounded=0;sketch=0;rotation=90;" vertex="1" parent="Ge7aqxbjUbuo9fXOc1NT-20">
          <mxGeometry width="140" height="210" as="geometry" />
        </mxCell>
        <mxCell id="Ge7aqxbjUbuo9fXOc1NT-21" style="edgeStyle=orthogonalEdgeStyle;orthogonalLoop=1;jettySize=auto;html=1;exitX=0.5;exitY=0;exitDx=0;exitDy=0;entryX=0;entryY=0.5;entryDx=0;entryDy=0;fontFamily=Comic Sans MS;curved=1;" edge="1" parent="1" source="Ge7aqxbjUbuo9fXOc1NT-157" target="Ge7aqxbjUbuo9fXOc1NT-17">
          <mxGeometry relative="1" as="geometry">
            <mxPoint x="480" y="25" as="sourcePoint" />
          </mxGeometry>
        </mxCell>
        <mxCell id="Ge7aqxbjUbuo9fXOc1NT-19" value="" style="group" vertex="1" connectable="0" parent="1">
          <mxGeometry x="940" y="-240" width="150" height="60" as="geometry" />
        </mxCell>
        <mxCell id="Ge7aqxbjUbuo9fXOc1NT-17" value="" style="shape=process;whiteSpace=wrap;html=1;backgroundOutline=1;rounded=0;sketch=0;fontFamily=Comic Sans MS;fillColor=#97D077;" vertex="1" parent="Ge7aqxbjUbuo9fXOc1NT-19">
          <mxGeometry width="150" height="60" as="geometry" />
        </mxCell>
        <mxCell id="Ge7aqxbjUbuo9fXOc1NT-18" value="Image Deployment Action" style="text;html=1;strokeColor=none;fillColor=none;align=center;verticalAlign=middle;whiteSpace=wrap;rounded=0;sketch=0;fontFamily=Comic Sans MS;" vertex="1" parent="Ge7aqxbjUbuo9fXOc1NT-19">
          <mxGeometry x="30" y="15" width="90" height="30" as="geometry" />
        </mxCell>
        <mxCell id="Ge7aqxbjUbuo9fXOc1NT-22" style="edgeStyle=orthogonalEdgeStyle;curved=1;orthogonalLoop=1;jettySize=auto;html=1;fontFamily=Comic Sans MS;exitX=1;exitY=0.5;exitDx=0;exitDy=0;entryX=0.5;entryY=1;entryDx=0;entryDy=0;" edge="1" parent="1" source="Ge7aqxbjUbuo9fXOc1NT-17" target="Ge7aqxbjUbuo9fXOc1NT-16">
          <mxGeometry relative="1" as="geometry">
            <Array as="points" />
          </mxGeometry>
        </mxCell>
        <mxCell id="Ge7aqxbjUbuo9fXOc1NT-34" value="" style="group" vertex="1" connectable="0" parent="1">
          <mxGeometry x="1035" y="569.5" width="325" height="251" as="geometry" />
        </mxCell>
        <mxCell id="Ge7aqxbjUbuo9fXOc1NT-24" value="Host" style="outlineConnect=0;dashed=0;verticalLabelPosition=bottom;verticalAlign=top;align=center;html=1;shape=mxgraph.aws3.auto_scaling;fillColor=#F58534;gradientColor=none;rounded=0;sketch=0;fontFamily=Comic Sans MS;" vertex="1" parent="Ge7aqxbjUbuo9fXOc1NT-34">
          <mxGeometry x="105" y="15.5" width="50" height="46.5" as="geometry" />
        </mxCell>
        <mxCell id="Ge7aqxbjUbuo9fXOc1NT-25" value="Manager" style="outlineConnect=0;dashed=0;verticalLabelPosition=bottom;verticalAlign=top;align=center;html=1;shape=mxgraph.aws3.auto_scaling;fillColor=#F58534;gradientColor=none;rounded=0;sketch=0;fontFamily=Comic Sans MS;" vertex="1" parent="Ge7aqxbjUbuo9fXOc1NT-34">
          <mxGeometry x="110" y="130" width="50" height="46.5" as="geometry" />
        </mxCell>
        <mxCell id="Ge7aqxbjUbuo9fXOc1NT-26" value="Cluster Dynamo" style="outlineConnect=0;dashed=0;verticalLabelPosition=bottom;verticalAlign=top;align=center;html=1;shape=mxgraph.aws3.dynamo_db;fillColor=#2E73B8;gradientColor=none;rounded=0;sketch=0;fontFamily=Comic Sans MS;" vertex="1" parent="Ge7aqxbjUbuo9fXOc1NT-34">
          <mxGeometry x="215" y="160" width="72" height="81" as="geometry" />
        </mxCell>
        <mxCell id="Ge7aqxbjUbuo9fXOc1NT-28" value="Cluster Redis" style="sketch=0;aspect=fixed;html=1;points=[];align=center;image;fontSize=12;image=img/lib/mscae/Cache_Redis_Product.svg;rounded=0;fontFamily=Comic Sans MS;fillColor=#FF66FF;" vertex="1" parent="Ge7aqxbjUbuo9fXOc1NT-34">
          <mxGeometry x="275" width="50" height="42" as="geometry" />
        </mxCell>
        <mxCell id="Ge7aqxbjUbuo9fXOc1NT-29" style="edgeStyle=orthogonalEdgeStyle;curved=1;orthogonalLoop=1;jettySize=auto;html=1;exitX=1;exitY=0.5;exitDx=0;exitDy=0;exitPerimeter=0;fontFamily=Comic Sans MS;" edge="1" parent="Ge7aqxbjUbuo9fXOc1NT-34" source="Ge7aqxbjUbuo9fXOc1NT-24" target="Ge7aqxbjUbuo9fXOc1NT-26">
          <mxGeometry relative="1" as="geometry" />
        </mxCell>
        <mxCell id="Ge7aqxbjUbuo9fXOc1NT-30" style="edgeStyle=orthogonalEdgeStyle;curved=1;orthogonalLoop=1;jettySize=auto;html=1;fontFamily=Comic Sans MS;" edge="1" parent="Ge7aqxbjUbuo9fXOc1NT-34" source="Ge7aqxbjUbuo9fXOc1NT-25" target="Ge7aqxbjUbuo9fXOc1NT-26">
          <mxGeometry relative="1" as="geometry" />
        </mxCell>
        <mxCell id="Ge7aqxbjUbuo9fXOc1NT-31" style="edgeStyle=orthogonalEdgeStyle;curved=1;orthogonalLoop=1;jettySize=auto;html=1;exitX=1;exitY=0.5;exitDx=0;exitDy=0;exitPerimeter=0;fontFamily=Comic Sans MS;" edge="1" parent="Ge7aqxbjUbuo9fXOc1NT-34" source="Ge7aqxbjUbuo9fXOc1NT-25" target="Ge7aqxbjUbuo9fXOc1NT-28">
          <mxGeometry relative="1" as="geometry" />
        </mxCell>
        <mxCell id="Ge7aqxbjUbuo9fXOc1NT-32" style="edgeStyle=orthogonalEdgeStyle;curved=1;orthogonalLoop=1;jettySize=auto;html=1;exitX=1;exitY=0.5;exitDx=0;exitDy=0;exitPerimeter=0;fontFamily=Comic Sans MS;" edge="1" parent="Ge7aqxbjUbuo9fXOc1NT-34" source="Ge7aqxbjUbuo9fXOc1NT-24" target="Ge7aqxbjUbuo9fXOc1NT-28">
          <mxGeometry relative="1" as="geometry" />
        </mxCell>
        <mxCell id="Ge7aqxbjUbuo9fXOc1NT-27" value="Manager&lt;br&gt;Load Balancer" style="outlineConnect=0;dashed=0;verticalLabelPosition=bottom;verticalAlign=top;align=center;html=1;shape=mxgraph.aws3.application_load_balancer;fillColor=#F58534;gradientColor=none;rounded=0;sketch=0;fontFamily=Comic Sans MS;" vertex="1" parent="1">
          <mxGeometry x="840" y="620" width="39" height="42" as="geometry" />
        </mxCell>
        <mxCell id="Ge7aqxbjUbuo9fXOc1NT-33" style="edgeStyle=orthogonalEdgeStyle;curved=1;orthogonalLoop=1;jettySize=auto;html=1;exitX=0;exitY=0.5;exitDx=0;exitDy=0;exitPerimeter=0;fontFamily=Comic Sans MS;" edge="1" parent="1" source="Ge7aqxbjUbuo9fXOc1NT-25" target="Ge7aqxbjUbuo9fXOc1NT-27">
          <mxGeometry relative="1" as="geometry">
            <Array as="points">
              <mxPoint x="940" y="723" />
              <mxPoint x="940" y="620" />
              <mxPoint x="1050" y="620" />
              <mxPoint x="1050" y="570" />
              <mxPoint x="860" y="570" />
            </Array>
          </mxGeometry>
        </mxCell>
        <mxCell id="Ge7aqxbjUbuo9fXOc1NT-52" value="" style="group" vertex="1" connectable="0" parent="1">
          <mxGeometry x="1035" y="109" width="570" height="271" as="geometry" />
        </mxCell>
        <mxCell id="Ge7aqxbjUbuo9fXOc1NT-36" value="Registry" style="outlineConnect=0;dashed=0;verticalLabelPosition=bottom;verticalAlign=top;align=center;html=1;shape=mxgraph.aws3.auto_scaling;fillColor=#F58534;gradientColor=none;rounded=0;sketch=0;fontFamily=Comic Sans MS;" vertex="1" parent="Ge7aqxbjUbuo9fXOc1NT-52">
          <mxGeometry x="242.15686274509804" width="46.568627450980394" height="46.5" as="geometry" />
        </mxCell>
        <mxCell id="Ge7aqxbjUbuo9fXOc1NT-37" value="Router" style="outlineConnect=0;dashed=0;verticalLabelPosition=bottom;verticalAlign=top;align=center;html=1;shape=mxgraph.aws3.auto_scaling;fillColor=#F58534;gradientColor=none;rounded=0;sketch=0;fontFamily=Comic Sans MS;" vertex="1" parent="Ge7aqxbjUbuo9fXOc1NT-52">
          <mxGeometry x="242.15686274509804" y="110" width="46.568627450980394" height="46.5" as="geometry" />
        </mxCell>
        <mxCell id="Ge7aqxbjUbuo9fXOc1NT-38" value="Core Dynamo" style="outlineConnect=0;dashed=0;verticalLabelPosition=bottom;verticalAlign=top;align=center;html=1;shape=mxgraph.aws3.dynamo_db;fillColor=#2E73B8;gradientColor=none;rounded=0;sketch=0;fontFamily=Comic Sans MS;" vertex="1" parent="Ge7aqxbjUbuo9fXOc1NT-52">
          <mxGeometry x="456.37254901960785" y="190" width="67.05882352941177" height="81" as="geometry" />
        </mxCell>
        <mxCell id="Ge7aqxbjUbuo9fXOc1NT-39" value="Core Redis" style="sketch=0;aspect=fixed;html=1;points=[];align=center;image;fontSize=12;image=img/lib/mscae/Cache_Redis_Product.svg;rounded=0;fontFamily=Comic Sans MS;fillColor=#FF66FF;" vertex="1" parent="Ge7aqxbjUbuo9fXOc1NT-52">
          <mxGeometry x="523.4313725490197" y="20" width="46.568627450980394" height="39.11764705882353" as="geometry" />
        </mxCell>
        <mxCell id="Ge7aqxbjUbuo9fXOc1NT-45" value="Control" style="outlineConnect=0;dashed=0;verticalLabelPosition=bottom;verticalAlign=top;align=center;html=1;shape=mxgraph.aws3.auto_scaling;fillColor=#F58534;gradientColor=none;rounded=0;sketch=0;fontFamily=Comic Sans MS;" vertex="1" parent="Ge7aqxbjUbuo9fXOc1NT-52">
          <mxGeometry x="242.15686274509804" y="200" width="46.568627450980394" height="46.5" as="geometry" />
        </mxCell>
        <mxCell id="Ge7aqxbjUbuo9fXOc1NT-48" value="Control&lt;br&gt;Load Balancer" style="outlineConnect=0;dashed=0;verticalLabelPosition=bottom;verticalAlign=top;align=center;html=1;shape=mxgraph.aws3.application_load_balancer;fillColor=#F58534;gradientColor=none;rounded=0;sketch=0;fontFamily=Comic Sans MS;" vertex="1" parent="Ge7aqxbjUbuo9fXOc1NT-52">
          <mxGeometry x="65.19607843137256" y="220" width="36.32352941176471" height="42" as="geometry" />
        </mxCell>
        <mxCell id="Ge7aqxbjUbuo9fXOc1NT-49" value="Registry&lt;br&gt;Load Balancer" style="outlineConnect=0;dashed=0;verticalLabelPosition=bottom;verticalAlign=top;align=center;html=1;shape=mxgraph.aws3.application_load_balancer;fillColor=#F58534;gradientColor=none;rounded=0;sketch=0;fontFamily=Comic Sans MS;" vertex="1" parent="Ge7aqxbjUbuo9fXOc1NT-52">
          <mxGeometry y="62" width="36.32352941176471" height="42" as="geometry" />
        </mxCell>
        <mxCell id="Ge7aqxbjUbuo9fXOc1NT-40" style="edgeStyle=orthogonalEdgeStyle;curved=1;orthogonalLoop=1;jettySize=auto;html=1;exitX=1;exitY=0.5;exitDx=0;exitDy=0;exitPerimeter=0;fontFamily=Comic Sans MS;" edge="1" parent="Ge7aqxbjUbuo9fXOc1NT-52" source="Ge7aqxbjUbuo9fXOc1NT-36" target="Ge7aqxbjUbuo9fXOc1NT-38">
          <mxGeometry relative="1" as="geometry">
            <Array as="points">
              <mxPoint x="289" y="139" />
              <mxPoint x="640" y="139" />
              <mxPoint x="640" y="250" />
            </Array>
          </mxGeometry>
        </mxCell>
        <mxCell id="Ge7aqxbjUbuo9fXOc1NT-41" style="edgeStyle=orthogonalEdgeStyle;curved=1;orthogonalLoop=1;jettySize=auto;html=1;fontFamily=Comic Sans MS;" edge="1" parent="Ge7aqxbjUbuo9fXOc1NT-52" source="Ge7aqxbjUbuo9fXOc1NT-37" target="Ge7aqxbjUbuo9fXOc1NT-38">
          <mxGeometry relative="1" as="geometry" />
        </mxCell>
        <mxCell id="Ge7aqxbjUbuo9fXOc1NT-42" style="edgeStyle=orthogonalEdgeStyle;curved=1;orthogonalLoop=1;jettySize=auto;html=1;exitX=1;exitY=0.5;exitDx=0;exitDy=0;exitPerimeter=0;fontFamily=Comic Sans MS;" edge="1" parent="Ge7aqxbjUbuo9fXOc1NT-52" source="Ge7aqxbjUbuo9fXOc1NT-37" target="Ge7aqxbjUbuo9fXOc1NT-39">
          <mxGeometry relative="1" as="geometry" />
        </mxCell>
        <mxCell id="Ge7aqxbjUbuo9fXOc1NT-43" style="edgeStyle=orthogonalEdgeStyle;curved=1;orthogonalLoop=1;jettySize=auto;html=1;exitX=1;exitY=0.5;exitDx=0;exitDy=0;exitPerimeter=0;fontFamily=Comic Sans MS;" edge="1" parent="Ge7aqxbjUbuo9fXOc1NT-52" source="Ge7aqxbjUbuo9fXOc1NT-36" target="Ge7aqxbjUbuo9fXOc1NT-39">
          <mxGeometry relative="1" as="geometry" />
        </mxCell>
        <mxCell id="Ge7aqxbjUbuo9fXOc1NT-46" style="edgeStyle=orthogonalEdgeStyle;curved=1;orthogonalLoop=1;jettySize=auto;html=1;entryX=0;entryY=0.5;entryDx=0;entryDy=0;entryPerimeter=0;fontFamily=Comic Sans MS;" edge="1" parent="Ge7aqxbjUbuo9fXOc1NT-52" source="Ge7aqxbjUbuo9fXOc1NT-45" target="Ge7aqxbjUbuo9fXOc1NT-38">
          <mxGeometry relative="1" as="geometry" />
        </mxCell>
        <mxCell id="Ge7aqxbjUbuo9fXOc1NT-47" style="edgeStyle=orthogonalEdgeStyle;curved=1;orthogonalLoop=1;jettySize=auto;html=1;exitX=1;exitY=0.5;exitDx=0;exitDy=0;exitPerimeter=0;entryX=-0.02;entryY=0.488;entryDx=0;entryDy=0;entryPerimeter=0;fontFamily=Comic Sans MS;" edge="1" parent="Ge7aqxbjUbuo9fXOc1NT-52" source="Ge7aqxbjUbuo9fXOc1NT-45" target="Ge7aqxbjUbuo9fXOc1NT-39">
          <mxGeometry relative="1" as="geometry" />
        </mxCell>
        <mxCell id="Ge7aqxbjUbuo9fXOc1NT-51" style="edgeStyle=orthogonalEdgeStyle;curved=1;orthogonalLoop=1;jettySize=auto;html=1;exitX=0;exitY=0.5;exitDx=0;exitDy=0;exitPerimeter=0;entryX=1;entryY=0.5;entryDx=0;entryDy=0;entryPerimeter=0;fontFamily=Comic Sans MS;" edge="1" parent="Ge7aqxbjUbuo9fXOc1NT-52" source="Ge7aqxbjUbuo9fXOc1NT-45" target="Ge7aqxbjUbuo9fXOc1NT-48">
          <mxGeometry relative="1" as="geometry" />
        </mxCell>
        <mxCell id="Ge7aqxbjUbuo9fXOc1NT-50" style="edgeStyle=orthogonalEdgeStyle;curved=1;orthogonalLoop=1;jettySize=auto;html=1;exitX=0;exitY=0.5;exitDx=0;exitDy=0;exitPerimeter=0;entryX=1;entryY=0.5;entryDx=0;entryDy=0;entryPerimeter=0;fontFamily=Comic Sans MS;" edge="1" parent="Ge7aqxbjUbuo9fXOc1NT-52" source="Ge7aqxbjUbuo9fXOc1NT-36" target="Ge7aqxbjUbuo9fXOc1NT-49">
          <mxGeometry relative="1" as="geometry" />
        </mxCell>
        <mxCell id="Ge7aqxbjUbuo9fXOc1NT-54" value="Cluster" style="text;html=1;strokeColor=none;fillColor=none;align=center;verticalAlign=middle;whiteSpace=wrap;rounded=0;sketch=0;fontFamily=Comic Sans MS;" vertex="1" parent="1">
          <mxGeometry x="1290" y="500" width="60" height="30" as="geometry" />
        </mxCell>
        <mxCell id="Ge7aqxbjUbuo9fXOc1NT-61" value="" style="group" vertex="1" connectable="0" parent="1">
          <mxGeometry x="940" y="-180" width="150" height="60" as="geometry" />
        </mxCell>
        <mxCell id="Ge7aqxbjUbuo9fXOc1NT-62" value="" style="shape=process;whiteSpace=wrap;html=1;backgroundOutline=1;rounded=0;sketch=0;fontFamily=Comic Sans MS;fillColor=#97D077;" vertex="1" parent="Ge7aqxbjUbuo9fXOc1NT-61">
          <mxGeometry width="150" height="60" as="geometry" />
        </mxCell>
        <mxCell id="Ge7aqxbjUbuo9fXOc1NT-63" value="Infra Deployment Action" style="text;html=1;strokeColor=none;fillColor=none;align=center;verticalAlign=middle;whiteSpace=wrap;rounded=0;sketch=0;fontFamily=Comic Sans MS;" vertex="1" parent="Ge7aqxbjUbuo9fXOc1NT-61">
          <mxGeometry x="30" y="15" width="90" height="30" as="geometry" />
        </mxCell>
        <mxCell id="Ge7aqxbjUbuo9fXOc1NT-67" style="edgeStyle=orthogonalEdgeStyle;curved=1;orthogonalLoop=1;jettySize=auto;html=1;exitX=1;exitY=0.5;exitDx=0;exitDy=0;fontFamily=Comic Sans MS;fontSize=8;" edge="1" parent="1" source="Ge7aqxbjUbuo9fXOc1NT-62" target="Ge7aqxbjUbuo9fXOc1NT-160">
          <mxGeometry relative="1" as="geometry">
            <mxPoint x="1580" y="65" as="targetPoint" />
            <Array as="points">
              <mxPoint x="1660" y="-150" />
              <mxPoint x="1660" y="15" />
              <mxPoint x="1667" y="15" />
            </Array>
          </mxGeometry>
        </mxCell>
        <mxCell id="Ge7aqxbjUbuo9fXOc1NT-161" value="&lt;span style=&quot;font-size: 8px ; text-align: left&quot;&gt;Use OPA to apply compliance rules as a workflow action step,&amp;nbsp;&lt;br&gt;&lt;/span&gt;&lt;font style=&quot;font-size: 8px&quot;&gt;block deployments which introduce deviations from compliance policies&lt;/font&gt;" style="edgeLabel;html=1;align=center;verticalAlign=middle;resizable=0;points=[];fontSize=10;fontFamily=Comic Sans MS;" vertex="1" connectable="0" parent="Ge7aqxbjUbuo9fXOc1NT-67">
          <mxGeometry x="0.5428" y="-27" relative="1" as="geometry">
            <mxPoint as="offset" />
          </mxGeometry>
        </mxCell>
        <mxCell id="Ge7aqxbjUbuo9fXOc1NT-68" style="edgeStyle=orthogonalEdgeStyle;curved=1;orthogonalLoop=1;jettySize=auto;html=1;exitX=1;exitY=0.5;exitDx=0;exitDy=0;fontFamily=Comic Sans MS;fontSize=8;entryX=0.4;entryY=0.1;entryDx=0;entryDy=0;entryPerimeter=0;" edge="1" parent="1" source="Ge7aqxbjUbuo9fXOc1NT-16" target="Ge7aqxbjUbuo9fXOc1NT-11">
          <mxGeometry relative="1" as="geometry">
            <Array as="points">
              <mxPoint x="1340" y="-285" />
              <mxPoint x="1340" y="-33" />
              <mxPoint x="1301" y="-33" />
              <mxPoint x="1301" y="81" />
            </Array>
          </mxGeometry>
        </mxCell>
        <mxCell id="Ge7aqxbjUbuo9fXOc1NT-100" style="edgeStyle=orthogonalEdgeStyle;curved=1;orthogonalLoop=1;jettySize=auto;html=1;fontFamily=Comic Sans MS;fontSize=10;startArrow=classic;startFill=1;" edge="1" parent="1" source="Ge7aqxbjUbuo9fXOc1NT-80" target="Ge7aqxbjUbuo9fXOc1NT-99">
          <mxGeometry relative="1" as="geometry">
            <Array as="points" />
          </mxGeometry>
        </mxCell>
        <mxCell id="Ge7aqxbjUbuo9fXOc1NT-80" value="OpsGenie&#xa;&#xa;- deduplication&#xa;- notification routing&#xa;- escalations" style="image;image=img/lib/atlassian/Atlassian_Logo.svg;rounded=0;labelBackgroundColor=#FFFFFF;sketch=0;fontFamily=Comic Sans MS;fontSize=10;strokeColor=#FF0080;fillColor=#FF0080;align=center;fontStyle=1" vertex="1" parent="1">
          <mxGeometry x="1610" y="-309.99999999999994" width="66" height="66" as="geometry" />
        </mxCell>
        <mxCell id="Ge7aqxbjUbuo9fXOc1NT-82" value="@noop-inc" style="swimlane;fillColor=#A680B8;fontFamily=Comic Sans MS;" vertex="1" parent="1">
          <mxGeometry x="240" y="150" width="350" height="290" as="geometry" />
        </mxCell>
        <mxCell id="Ge7aqxbjUbuo9fXOc1NT-154" value="Application repositories are monitored by Dependabot for vulnerable dependencies" style="shape=callout;whiteSpace=wrap;html=1;perimeter=calloutPerimeter;rounded=0;labelBackgroundColor=#FFFFFF;sketch=0;fontFamily=Comic Sans MS;fontSize=10;strokeColor=#000000;fillColor=#FFE599;" vertex="1" parent="Ge7aqxbjUbuo9fXOc1NT-82">
          <mxGeometry x="220" y="-17.5" width="130" height="105" as="geometry" />
        </mxCell>
        <mxCell id="Ge7aqxbjUbuo9fXOc1NT-132" style="edgeStyle=orthogonalEdgeStyle;curved=1;orthogonalLoop=1;jettySize=auto;html=1;entryX=0;entryY=0.5;entryDx=0;entryDy=0;dashed=1;fontFamily=Comic Sans MS;fontSize=10;" edge="1" parent="1">
          <mxGeometry relative="1" as="geometry">
            <mxPoint x="226.25" y="312.9689499999997" as="sourcePoint" />
            <mxPoint x="270" y="654" as="targetPoint" />
            <Array as="points">
              <mxPoint x="140" y="313" />
              <mxPoint x="140" y="672" />
              <mxPoint x="270" y="672" />
            </Array>
          </mxGeometry>
        </mxCell>
        <mxCell id="Ge7aqxbjUbuo9fXOc1NT-133" value="Issues created in application repositories sync &lt;br&gt;through Sentinel and onto the Project Board" style="edgeLabel;html=1;align=center;verticalAlign=middle;resizable=0;points=[];fontSize=10;fontFamily=Comic Sans MS;" vertex="1" connectable="0" parent="Ge7aqxbjUbuo9fXOc1NT-132">
          <mxGeometry x="-0.3439" relative="1" as="geometry">
            <mxPoint y="69" as="offset" />
          </mxGeometry>
        </mxCell>
        <mxCell id="Ge7aqxbjUbuo9fXOc1NT-92" value="" style="shape=cylinder3;whiteSpace=wrap;html=1;boundedLbl=1;backgroundOutline=1;size=15;rotation=90;fillColor=#FF8000;sketch=1;align=center;" vertex="1" parent="1">
          <mxGeometry x="309.05" y="147.16" width="201.9" height="327.5" as="geometry" />
        </mxCell>
        <mxCell id="Ge7aqxbjUbuo9fXOc1NT-93" value="Application Repositories" style="swimlane;rounded=0;labelBackgroundColor=#FFFFFF;sketch=0;fontFamily=Comic Sans MS;fontSize=10;strokeColor=#000000;fillColor=#A680B8;" vertex="1" parent="1">
          <mxGeometry x="270" y="230" width="250" height="150" as="geometry" />
        </mxCell>
        <mxCell id="Ge7aqxbjUbuo9fXOc1NT-140" value="manager" style="rounded=1;whiteSpace=wrap;html=1;labelBackgroundColor=#FFFFFF;sketch=0;fontFamily=Comic Sans MS;fontSize=10;strokeColor=#000000;fillColor=#A680B8;" vertex="1" parent="Ge7aqxbjUbuo9fXOc1NT-93">
          <mxGeometry x="90" y="34.25" width="70" height="40" as="geometry" />
        </mxCell>
        <mxCell id="Ge7aqxbjUbuo9fXOc1NT-141" value="logic" style="rounded=1;whiteSpace=wrap;html=1;labelBackgroundColor=#FFFFFF;sketch=0;fontFamily=Comic Sans MS;fontSize=10;strokeColor=#000000;fillColor=#A680B8;" vertex="1" parent="Ge7aqxbjUbuo9fXOc1NT-93">
          <mxGeometry x="90" y="90" width="40" height="30" as="geometry" />
        </mxCell>
        <mxCell id="Ge7aqxbjUbuo9fXOc1NT-142" value="router" style="rounded=1;whiteSpace=wrap;html=1;labelBackgroundColor=#FFFFFF;sketch=0;fontFamily=Comic Sans MS;fontSize=10;strokeColor=#000000;fillColor=#A680B8;" vertex="1" parent="Ge7aqxbjUbuo9fXOc1NT-93">
          <mxGeometry x="170" y="34.25" width="70" height="40" as="geometry" />
        </mxCell>
        <mxCell id="Ge7aqxbjUbuo9fXOc1NT-145" value="...." style="rounded=1;whiteSpace=wrap;html=1;labelBackgroundColor=#FFFFFF;sketch=0;fontFamily=Comic Sans MS;fontSize=10;strokeColor=#000000;fillColor=#A680B8;" vertex="1" parent="Ge7aqxbjUbuo9fXOc1NT-93">
          <mxGeometry x="10" y="90" width="70" height="40" as="geometry" />
        </mxCell>
        <mxCell id="Ge7aqxbjUbuo9fXOc1NT-144" value="disco.." style="rounded=1;whiteSpace=wrap;html=1;labelBackgroundColor=#FFFFFF;sketch=0;fontFamily=Comic Sans MS;fontSize=10;strokeColor=#000000;fillColor=#A680B8;" vertex="1" parent="Ge7aqxbjUbuo9fXOc1NT-93">
          <mxGeometry x="140" y="90" width="40" height="30" as="geometry" />
        </mxCell>
        <mxCell id="Ge7aqxbjUbuo9fXOc1NT-152" value="..." style="rounded=1;whiteSpace=wrap;html=1;labelBackgroundColor=#FFFFFF;sketch=0;fontFamily=Comic Sans MS;fontSize=10;strokeColor=#000000;fillColor=#A680B8;" vertex="1" parent="Ge7aqxbjUbuo9fXOc1NT-93">
          <mxGeometry x="190" y="90" width="40" height="30" as="geometry" />
        </mxCell>
        <mxCell id="Ge7aqxbjUbuo9fXOc1NT-98" style="edgeStyle=orthogonalEdgeStyle;curved=1;orthogonalLoop=1;jettySize=auto;html=1;exitX=1;exitY=0.5;exitDx=0;exitDy=0;entryX=0;entryY=0.5;entryDx=0;entryDy=0;fontFamily=Comic Sans MS;fontSize=10;" edge="1" parent="1" source="Ge7aqxbjUbuo9fXOc1NT-94" target="Ge7aqxbjUbuo9fXOc1NT-80">
          <mxGeometry relative="1" as="geometry">
            <Array as="points">
              <mxPoint x="1110" y="185" />
              <mxPoint x="1110" y="-80" />
              <mxPoint x="1330" y="-80" />
            </Array>
          </mxGeometry>
        </mxCell>
        <mxCell id="Ge7aqxbjUbuo9fXOc1NT-94" value="Git Issue #12345" style="html=1;shadow=0;dashed=0;shape=mxgraph.atlassian.issue;issueType=story;issuePriority=blocker;issueStatus=inProgress;verticalAlign=top;align=left;whiteSpace=wrap;overflow=hidden;spacingTop=25;strokeColor=#A8ADB0;fillColor=#EEEEEE;fontSize=12;backgroundOutline=1;sketch=0;rounded=0;labelBackgroundColor=#FFFFFF;fontFamily=Comic Sans MS;" vertex="1" parent="1">
          <mxGeometry x="717.25" y="180" width="200" height="50" as="geometry" />
        </mxCell>
        <mxCell id="Ge7aqxbjUbuo9fXOc1NT-95" value="ID" style="strokeColor=none;fillColor=none;part=1;resizable=0;align=left;autosize=1;points=[];deletable=0;connectable=0;rounded=0;labelBackgroundColor=#FFFFFF;sketch=0;fontFamily=Comic Sans MS;fontSize=10;" vertex="1" parent="Ge7aqxbjUbuo9fXOc1NT-94">
          <mxGeometry width="60" height="20" relative="1" as="geometry">
            <mxPoint x="20" as="offset" />
          </mxGeometry>
        </mxCell>
        <mxCell id="Ge7aqxbjUbuo9fXOc1NT-97" style="edgeStyle=orthogonalEdgeStyle;curved=1;orthogonalLoop=1;jettySize=auto;html=1;exitX=1;exitY=0.25;exitDx=0;exitDy=0;entryX=0;entryY=0.5;entryDx=0;entryDy=0;fontFamily=Comic Sans MS;fontSize=10;" edge="1" parent="1" target="Ge7aqxbjUbuo9fXOc1NT-94">
          <mxGeometry relative="1" as="geometry">
            <mxPoint x="520" y="290" as="sourcePoint" />
            <Array as="points">
              <mxPoint x="520" y="185" />
            </Array>
          </mxGeometry>
        </mxCell>
        <mxCell id="Ge7aqxbjUbuo9fXOc1NT-104" style="edgeStyle=orthogonalEdgeStyle;curved=1;orthogonalLoop=1;jettySize=auto;html=1;exitX=0;exitY=0.5;exitDx=0;exitDy=0;exitPerimeter=0;entryX=1;entryY=0.5;entryDx=0;entryDy=0;fontFamily=Comic Sans MS;fontSize=10;" edge="1" parent="1" source="Ge7aqxbjUbuo9fXOc1NT-99" target="Ge7aqxbjUbuo9fXOc1NT-103">
          <mxGeometry relative="1" as="geometry">
            <Array as="points">
              <mxPoint x="1420" y="770" />
              <mxPoint x="820" y="770" />
              <mxPoint x="820" y="593" />
            </Array>
          </mxGeometry>
        </mxCell>
        <mxCell id="Ge7aqxbjUbuo9fXOc1NT-99" value="Sentinel" style="outlineConnect=0;dashed=0;verticalLabelPosition=bottom;verticalAlign=top;align=center;html=1;shape=mxgraph.aws3.auto_scaling;fillColor=#F58534;gradientColor=none;rounded=0;sketch=0;fontFamily=Comic Sans MS;" vertex="1" parent="1">
          <mxGeometry x="1419.996862745098" y="50" width="46.568627450980394" height="46.5" as="geometry" />
        </mxCell>
        <mxCell id="Ge7aqxbjUbuo9fXOc1NT-101" value="@noop-inc" style="swimlane;fillColor=#A680B8;fontFamily=Comic Sans MS;" vertex="1" parent="1">
          <mxGeometry x="239.99" y="440" width="340" height="290" as="geometry" />
        </mxCell>
        <mxCell id="Ge7aqxbjUbuo9fXOc1NT-102" value="" style="shape=cylinder3;whiteSpace=wrap;html=1;boundedLbl=1;backgroundOutline=1;size=15;rotation=90;fillColor=#FF8000;sketch=1;align=center;" vertex="1" parent="1">
          <mxGeometry x="318.1" y="460" width="183.79" height="327.5" as="geometry" />
        </mxCell>
        <mxCell id="Ge7aqxbjUbuo9fXOc1NT-103" value="Project Board" style="swimlane;rounded=0;labelBackgroundColor=#FFFFFF;sketch=0;fontFamily=Comic Sans MS;fontSize=10;strokeColor=#000000;fillColor=#A680B8;" vertex="1" parent="1">
          <mxGeometry x="280" y="542" width="250" height="150" as="geometry" />
        </mxCell>
        <mxCell id="Ge7aqxbjUbuo9fXOc1NT-134" value="To Do" style="rounded=1;whiteSpace=wrap;html=1;labelBackgroundColor=#FFFFFF;sketch=0;fontFamily=Comic Sans MS;fontSize=10;strokeColor=#000000;fillColor=#A680B8;" vertex="1" parent="Ge7aqxbjUbuo9fXOc1NT-103">
          <mxGeometry x="10.000000000000021" y="33.5" width="70" height="40" as="geometry" />
        </mxCell>
        <mxCell id="Ge7aqxbjUbuo9fXOc1NT-135" value="In Progress" style="rounded=1;whiteSpace=wrap;html=1;labelBackgroundColor=#FFFFFF;sketch=0;fontFamily=Comic Sans MS;fontSize=10;strokeColor=#000000;fillColor=#A680B8;" vertex="1" parent="Ge7aqxbjUbuo9fXOc1NT-103">
          <mxGeometry x="94.99000000000001" y="33.5" width="70" height="40" as="geometry" />
        </mxCell>
        <mxCell id="Ge7aqxbjUbuo9fXOc1NT-136" value="Alerts" style="rounded=1;whiteSpace=wrap;html=1;labelBackgroundColor=#FFFFFF;sketch=0;fontFamily=Comic Sans MS;fontSize=10;strokeColor=#000000;fillColor=#A680B8;" vertex="1" parent="Ge7aqxbjUbuo9fXOc1NT-103">
          <mxGeometry x="94.99000000000001" y="90" width="70" height="40" as="geometry" />
        </mxCell>
        <mxCell id="Ge7aqxbjUbuo9fXOc1NT-138" value="Done" style="rounded=1;whiteSpace=wrap;html=1;labelBackgroundColor=#FFFFFF;sketch=0;fontFamily=Comic Sans MS;fontSize=10;strokeColor=#000000;fillColor=#A680B8;" vertex="1" parent="Ge7aqxbjUbuo9fXOc1NT-103">
          <mxGeometry x="170" y="33.5" width="70" height="40" as="geometry" />
        </mxCell>
        <mxCell id="Ge7aqxbjUbuo9fXOc1NT-105" style="edgeStyle=orthogonalEdgeStyle;curved=1;orthogonalLoop=1;jettySize=auto;html=1;exitX=0.5;exitY=0;exitDx=0;exitDy=0;entryX=1;entryY=0.5;entryDx=0;entryDy=0;fontFamily=Comic Sans MS;fontSize=10;dashed=1;" edge="1" parent="1" source="Ge7aqxbjUbuo9fXOc1NT-78" target="Ge7aqxbjUbuo9fXOc1NT-80">
          <mxGeometry relative="1" as="geometry">
            <Array as="points">
              <mxPoint x="2030" y="220" />
              <mxPoint x="1940" y="220" />
              <mxPoint x="1940" y="120" />
              <mxPoint x="1930" y="120" />
              <mxPoint x="1930" y="-100" />
              <mxPoint x="1960" y="-100" />
              <mxPoint x="1960" y="-207" />
              <mxPoint x="1910" y="-207" />
              <mxPoint x="1910" y="-277" />
            </Array>
          </mxGeometry>
        </mxCell>
        <mxCell id="Ge7aqxbjUbuo9fXOc1NT-106" value="Security Events will aggregate into Opsgenie, Sentinel&lt;br&gt;&amp;nbsp;and back onto the Project Board" style="edgeLabel;html=1;align=center;verticalAlign=middle;resizable=0;points=[];fontSize=10;fontFamily=Comic Sans MS;" vertex="1" connectable="0" parent="Ge7aqxbjUbuo9fXOc1NT-105">
          <mxGeometry x="0.4696" y="2" relative="1" as="geometry">
            <mxPoint as="offset" />
          </mxGeometry>
        </mxCell>
        <mxCell id="Ge7aqxbjUbuo9fXOc1NT-107" value="Noop Users" style="verticalLabelPosition=bottom;sketch=0;aspect=fixed;html=1;verticalAlign=top;strokeColor=none;align=center;outlineConnect=0;shape=mxgraph.citrix.users;rounded=0;labelBackgroundColor=#FFFFFF;fontFamily=Comic Sans MS;fontSize=10;fillColor=#A680B8;" vertex="1" parent="1">
          <mxGeometry x="652.75" y="630" width="64.5" height="55" as="geometry" />
        </mxCell>
        <mxCell id="Ge7aqxbjUbuo9fXOc1NT-111" style="edgeStyle=orthogonalEdgeStyle;curved=1;orthogonalLoop=1;jettySize=auto;html=1;entryX=0;entryY=0.5;entryDx=0;entryDy=0;dashed=1;fontFamily=Comic Sans MS;fontSize=10;startArrow=none;" edge="1" parent="1" source="Ge7aqxbjUbuo9fXOc1NT-112" target="Ge7aqxbjUbuo9fXOc1NT-82">
          <mxGeometry relative="1" as="geometry" />
        </mxCell>
        <mxCell id="Ge7aqxbjUbuo9fXOc1NT-117" style="edgeStyle=orthogonalEdgeStyle;curved=1;orthogonalLoop=1;jettySize=auto;html=1;dashed=1;fontFamily=Comic Sans MS;fontSize=10;startArrow=none;" edge="1" parent="1" source="Ge7aqxbjUbuo9fXOc1NT-120" target="Ge7aqxbjUbuo9fXOc1NT-123">
          <mxGeometry relative="1" as="geometry">
            <mxPoint x="810" y="760" as="targetPoint" />
            <Array as="points">
              <mxPoint x="860" y="840" />
            </Array>
          </mxGeometry>
        </mxCell>
        <mxCell id="Ge7aqxbjUbuo9fXOc1NT-108" value="Noop Engineers" style="verticalLabelPosition=bottom;sketch=0;aspect=fixed;html=1;verticalAlign=top;strokeColor=none;align=center;outlineConnect=0;shape=mxgraph.citrix.users;rounded=0;labelBackgroundColor=#FFFFFF;fontFamily=Comic Sans MS;fontSize=10;fillColor=#A680B8;" vertex="1" parent="1">
          <mxGeometry x="-180" y="180" width="70" height="59.69" as="geometry" />
        </mxCell>
        <mxCell id="Ge7aqxbjUbuo9fXOc1NT-112" value="@noop-inc&lt;br&gt;Approver" style="sketch=0;pointerEvents=1;shadow=0;dashed=0;html=1;strokeColor=none;fillColor=#505050;labelPosition=center;verticalLabelPosition=bottom;verticalAlign=top;outlineConnect=0;align=center;shape=mxgraph.office.users.approver;rounded=0;labelBackgroundColor=#FFFFFF;fontFamily=Comic Sans MS;fontSize=10;" vertex="1" parent="1">
          <mxGeometry x="131" y="150" width="59" height="55" as="geometry" />
        </mxCell>
        <mxCell id="Ge7aqxbjUbuo9fXOc1NT-113" value="" style="edgeStyle=orthogonalEdgeStyle;curved=1;orthogonalLoop=1;jettySize=auto;html=1;entryX=0;entryY=0.5;entryDx=0;entryDy=0;dashed=1;fontFamily=Comic Sans MS;fontSize=10;endArrow=none;startArrow=none;" edge="1" parent="1" source="Ge7aqxbjUbuo9fXOc1NT-116" target="Ge7aqxbjUbuo9fXOc1NT-112">
          <mxGeometry relative="1" as="geometry">
            <mxPoint x="-70" y="200.20000000000005" as="sourcePoint" />
            <mxPoint x="240" y="295" as="targetPoint" />
            <Array as="points">
              <mxPoint x="11" y="200" />
              <mxPoint x="131" y="200" />
            </Array>
          </mxGeometry>
        </mxCell>
        <mxCell id="Ge7aqxbjUbuo9fXOc1NT-114" value="GPG Key" style="sketch=0;aspect=fixed;pointerEvents=1;shadow=0;dashed=0;html=1;strokeColor=none;labelPosition=center;verticalLabelPosition=bottom;verticalAlign=top;align=center;fillColor=#00188D;shape=mxgraph.azure.certificate;rounded=0;labelBackgroundColor=#FFFFFF;fontFamily=Comic Sans MS;fontSize=10;" vertex="1" parent="1">
          <mxGeometry x="-10" y="120" width="50" height="40" as="geometry" />
        </mxCell>
        <mxCell id="Ge7aqxbjUbuo9fXOc1NT-118" value="" style="sketch=0;aspect=fixed;pointerEvents=1;shadow=0;dashed=0;html=1;strokeColor=none;labelPosition=center;verticalLabelPosition=bottom;verticalAlign=top;align=center;fillColor=#00188D;shape=mxgraph.azure.certificate;rounded=0;labelBackgroundColor=#FFFFFF;fontFamily=Comic Sans MS;fontSize=10;" vertex="1" parent="1">
          <mxGeometry x="-170" y="710" width="50" height="40" as="geometry" />
        </mxCell>
        <mxCell id="Ge7aqxbjUbuo9fXOc1NT-119" value="" style="edgeStyle=orthogonalEdgeStyle;curved=1;orthogonalLoop=1;jettySize=auto;html=1;dashed=1;fontFamily=Comic Sans MS;fontSize=10;endArrow=none;" edge="1" parent="1" source="Ge7aqxbjUbuo9fXOc1NT-108" target="Ge7aqxbjUbuo9fXOc1NT-118">
          <mxGeometry relative="1" as="geometry">
            <mxPoint x="-105" y="230" as="sourcePoint" />
            <mxPoint x="1070" y="606.5" as="targetPoint" />
            <Array as="points" />
          </mxGeometry>
        </mxCell>
        <mxCell id="Ge7aqxbjUbuo9fXOc1NT-126" style="edgeStyle=orthogonalEdgeStyle;curved=1;orthogonalLoop=1;jettySize=auto;html=1;entryX=0;entryY=0.5;entryDx=0;entryDy=0;entryPerimeter=0;dashed=1;fontFamily=Comic Sans MS;fontSize=10;" edge="1" parent="1" source="Ge7aqxbjUbuo9fXOc1NT-121" target="Ge7aqxbjUbuo9fXOc1NT-25">
          <mxGeometry relative="1" as="geometry" />
        </mxCell>
        <mxCell id="Ge7aqxbjUbuo9fXOc1NT-127" style="edgeStyle=orthogonalEdgeStyle;curved=1;orthogonalLoop=1;jettySize=auto;html=1;exitX=1;exitY=0.5;exitDx=0;exitDy=0;exitPerimeter=0;entryX=0;entryY=0.5;entryDx=0;entryDy=0;entryPerimeter=0;dashed=1;fontFamily=Comic Sans MS;fontSize=10;" edge="1" parent="1" source="Ge7aqxbjUbuo9fXOc1NT-121" target="Ge7aqxbjUbuo9fXOc1NT-24">
          <mxGeometry relative="1" as="geometry">
            <Array as="points">
              <mxPoint x="1060" y="570" />
              <mxPoint x="1090" y="570" />
              <mxPoint x="1090" y="608" />
            </Array>
          </mxGeometry>
        </mxCell>
        <mxCell id="Ge7aqxbjUbuo9fXOc1NT-121" value="Bastion ASG" style="outlineConnect=0;dashed=0;verticalLabelPosition=bottom;verticalAlign=top;align=center;html=1;shape=mxgraph.aws3.auto_scaling;fillColor=#F58534;gradientColor=none;rounded=0;sketch=0;fontFamily=Comic Sans MS;" vertex="1" parent="1">
          <mxGeometry x="1010" y="671.75" width="50" height="46.5" as="geometry" />
        </mxCell>
        <mxCell id="Ge7aqxbjUbuo9fXOc1NT-163" style="edgeStyle=orthogonalEdgeStyle;curved=1;orthogonalLoop=1;jettySize=auto;html=1;exitX=0;exitY=0.5;exitDx=0;exitDy=0;exitPerimeter=0;entryX=1;entryY=0.5;entryDx=0;entryDy=0;entryPerimeter=0;dashed=1;fontFamily=Comic Sans MS;fontSize=8;startArrow=classic;startFill=1;" edge="1" parent="1" source="Ge7aqxbjUbuo9fXOc1NT-122" target="Ge7aqxbjUbuo9fXOc1NT-162">
          <mxGeometry relative="1" as="geometry" />
        </mxCell>
        <mxCell id="Ge7aqxbjUbuo9fXOc1NT-122" value="Bastion ASG" style="outlineConnect=0;dashed=0;verticalLabelPosition=bottom;verticalAlign=top;align=center;html=1;shape=mxgraph.aws3.auto_scaling;fillColor=#F58534;gradientColor=none;rounded=0;sketch=0;fontFamily=Comic Sans MS;" vertex="1" parent="1">
          <mxGeometry x="1150" y="264.25" width="50" height="46.5" as="geometry" />
        </mxCell>
        <mxCell id="Ge7aqxbjUbuo9fXOc1NT-125" style="edgeStyle=orthogonalEdgeStyle;curved=1;orthogonalLoop=1;jettySize=auto;html=1;exitX=1;exitY=0.5;exitDx=0;exitDy=0;exitPerimeter=0;entryX=0;entryY=0.5;entryDx=0;entryDy=0;entryPerimeter=0;dashed=1;fontFamily=Comic Sans MS;fontSize=10;" edge="1" parent="1" source="Ge7aqxbjUbuo9fXOc1NT-123" target="Ge7aqxbjUbuo9fXOc1NT-121">
          <mxGeometry relative="1" as="geometry" />
        </mxCell>
        <mxCell id="Ge7aqxbjUbuo9fXOc1NT-123" value="Bastion SSH&lt;br&gt;Load Balancer" style="outlineConnect=0;dashed=0;verticalLabelPosition=bottom;verticalAlign=top;align=center;html=1;shape=mxgraph.aws3.application_load_balancer;fillColor=#F58534;gradientColor=none;rounded=0;sketch=0;fontFamily=Comic Sans MS;" vertex="1" parent="1">
          <mxGeometry x="945.5" y="787.5" width="39" height="42" as="geometry" />
        </mxCell>
        <mxCell id="Ge7aqxbjUbuo9fXOc1NT-120" value="SSH Access to any Bastion is governed by SSL Certificate generated from Noop CA" style="text;html=1;strokeColor=none;fillColor=none;align=center;verticalAlign=middle;whiteSpace=wrap;rounded=0;labelBackgroundColor=#FFFFFF;sketch=0;fontFamily=Comic Sans MS;fontSize=10;" vertex="1" parent="1">
          <mxGeometry x="501.89" y="840" width="180" height="30" as="geometry" />
        </mxCell>
        <mxCell id="Ge7aqxbjUbuo9fXOc1NT-124" value="" style="edgeStyle=orthogonalEdgeStyle;curved=1;orthogonalLoop=1;jettySize=auto;html=1;dashed=1;fontFamily=Comic Sans MS;fontSize=10;startArrow=none;endArrow=none;" edge="1" parent="1" source="Ge7aqxbjUbuo9fXOc1NT-118" target="Ge7aqxbjUbuo9fXOc1NT-120">
          <mxGeometry relative="1" as="geometry">
            <mxPoint x="-120" y="840" as="sourcePoint" />
            <mxPoint x="859.5" y="672" as="targetPoint" />
            <Array as="points">
              <mxPoint x="-105" y="840" />
            </Array>
          </mxGeometry>
        </mxCell>
        <mxCell id="Ge7aqxbjUbuo9fXOc1NT-137" value="Incidents" style="rounded=1;whiteSpace=wrap;html=1;labelBackgroundColor=#FFFFFF;sketch=0;fontFamily=Comic Sans MS;fontSize=10;strokeColor=#000000;fillColor=#A680B8;" vertex="1" parent="1">
          <mxGeometry x="290" y="632" width="70" height="40" as="geometry" />
        </mxCell>
        <mxCell id="Ge7aqxbjUbuo9fXOc1NT-139" value="control" style="rounded=1;whiteSpace=wrap;html=1;labelBackgroundColor=#FFFFFF;sketch=0;fontFamily=Comic Sans MS;fontSize=10;strokeColor=#000000;fillColor=#A680B8;" vertex="1" parent="1">
          <mxGeometry x="280" y="264.25" width="70" height="40" as="geometry" />
        </mxCell>
        <mxCell id="Ge7aqxbjUbuo9fXOc1NT-116" value="Authorized Noop Engineers contribute with verified commits. Branches are protected." style="text;html=1;strokeColor=none;fillColor=none;align=center;verticalAlign=middle;whiteSpace=wrap;rounded=0;labelBackgroundColor=#FFFFFF;sketch=0;fontFamily=Comic Sans MS;fontSize=10;" vertex="1" parent="1">
          <mxGeometry x="-60" y="168.12" width="150" height="83.14" as="geometry" />
        </mxCell>
        <mxCell id="Ge7aqxbjUbuo9fXOc1NT-153" value="" style="edgeStyle=orthogonalEdgeStyle;curved=1;orthogonalLoop=1;jettySize=auto;html=1;entryX=0;entryY=0.5;entryDx=0;entryDy=0;dashed=1;fontFamily=Comic Sans MS;fontSize=10;endArrow=none;" edge="1" parent="1" source="Ge7aqxbjUbuo9fXOc1NT-108" target="Ge7aqxbjUbuo9fXOc1NT-116">
          <mxGeometry relative="1" as="geometry">
            <mxPoint x="-110" y="209.9000000000001" as="sourcePoint" />
            <mxPoint x="131" y="267.19000000000005" as="targetPoint" />
            <Array as="points">
              <mxPoint x="11" y="210" />
            </Array>
          </mxGeometry>
        </mxCell>
        <mxCell id="Ge7aqxbjUbuo9fXOc1NT-64" value="&lt;ul style=&quot;font-size: 8px&quot;&gt;&lt;li&gt;Leverage OPA for enforcing governance and compliance for stack applies&lt;/li&gt;&lt;li&gt;Leverage AWS Config, Audit Manager (CIS) &amp;amp; Inspector for cloud compliance, vulnerability detection, and vulnerability remediation&amp;nbsp;&lt;/li&gt;&lt;/ul&gt;" style="text;html=1;strokeColor=none;fillColor=none;align=left;verticalAlign=middle;whiteSpace=wrap;rounded=0;labelBackgroundColor=#FFFFFF;sketch=1;fontFamily=Comic Sans MS;" vertex="1" parent="1">
          <mxGeometry x="736.9506779661018" y="-370.00333333333333" width="306.10169491525426" height="73.33333333333334" as="geometry" />
        </mxCell>
        <mxCell id="Ge7aqxbjUbuo9fXOc1NT-56" value="@noop-inc" style="swimlane;fillColor=#A680B8;fontFamily=Comic Sans MS;" vertex="1" parent="1">
          <mxGeometry x="580" y="-120" width="510" height="180" as="geometry" />
        </mxCell>
        <mxCell id="Ge7aqxbjUbuo9fXOc1NT-59" value="" style="shape=cylinder3;whiteSpace=wrap;html=1;boundedLbl=1;backgroundOutline=1;size=15;rotation=90;fillColor=#FF8000;sketch=1;align=center;" vertex="1" parent="1">
          <mxGeometry x="755.0027906976744" y="-260" width="145.89" height="480.21" as="geometry" />
        </mxCell>
        <mxCell id="Ge7aqxbjUbuo9fXOc1NT-57" value="Infrastructure Repositories" style="swimlane;rounded=0;sketch=0;fontFamily=Comic Sans MS;fillColor=#A680B8;labelBackgroundColor=default;" vertex="1" parent="1">
          <mxGeometry x="669.5" y="-74.89" width="300" height="110" as="geometry" />
        </mxCell>
        <mxCell id="Ge7aqxbjUbuo9fXOc1NT-159" style="edgeStyle=orthogonalEdgeStyle;curved=1;orthogonalLoop=1;jettySize=auto;html=1;exitX=0.5;exitY=0;exitDx=0;exitDy=0;dashed=1;fontFamily=Comic Sans MS;fontSize=10;startArrow=classic;startFill=1;" edge="1" parent="1" source="Ge7aqxbjUbuo9fXOc1NT-155">
          <mxGeometry relative="1" as="geometry">
            <mxPoint x="940" y="-150" as="targetPoint" />
            <Array as="points">
              <mxPoint x="804" y="-150" />
            </Array>
          </mxGeometry>
        </mxCell>
        <mxCell id="Ge7aqxbjUbuo9fXOc1NT-155" value="core" style="rounded=1;whiteSpace=wrap;html=1;labelBackgroundColor=#FFFFFF;sketch=0;fontFamily=Comic Sans MS;fontSize=10;strokeColor=#000000;fillColor=#A680B8;" vertex="1" parent="1">
          <mxGeometry x="768.3706976744187" y="-30" width="71.62790697674419" height="40" as="geometry" />
        </mxCell>
        <mxCell id="Ge7aqxbjUbuo9fXOc1NT-158" style="edgeStyle=orthogonalEdgeStyle;curved=1;orthogonalLoop=1;jettySize=auto;html=1;exitX=0.5;exitY=0;exitDx=0;exitDy=0;entryX=0;entryY=0.5;entryDx=0;entryDy=0;dashed=1;fontFamily=Comic Sans MS;fontSize=10;startArrow=classic;startFill=1;" edge="1" parent="1" source="Ge7aqxbjUbuo9fXOc1NT-156" target="Ge7aqxbjUbuo9fXOc1NT-62">
          <mxGeometry relative="1" as="geometry" />
        </mxCell>
        <mxCell id="Ge7aqxbjUbuo9fXOc1NT-156" value="cluster" style="rounded=1;whiteSpace=wrap;html=1;labelBackgroundColor=#FFFFFF;sketch=0;fontFamily=Comic Sans MS;fontSize=10;strokeColor=#000000;fillColor=#A680B8;" vertex="1" parent="1">
          <mxGeometry x="680.0037209302327" y="-30" width="71.62790697674419" height="40" as="geometry" />
        </mxCell>
        <mxCell id="Ge7aqxbjUbuo9fXOc1NT-157" value="image" style="rounded=1;whiteSpace=wrap;html=1;labelBackgroundColor=#FFFFFF;sketch=0;fontFamily=Comic Sans MS;fontSize=10;strokeColor=#000000;fillColor=#A680B8;" vertex="1" parent="1">
          <mxGeometry x="860.0006976744187" y="-30" width="71.62790697674419" height="40" as="geometry" />
        </mxCell>
        <mxCell id="Ge7aqxbjUbuo9fXOc1NT-160" value="Core Stack" style="outlineConnect=0;dashed=0;verticalLabelPosition=bottom;verticalAlign=top;align=center;html=1;shape=mxgraph.aws3.stack_aws_cloudformation;fillColor=#759C3E;gradientColor=none;rounded=0;labelBackgroundColor=default;sketch=0;fontFamily=Comic Sans MS;fontSize=10;strokeColor=#000000;" vertex="1" parent="1">
          <mxGeometry x="1640" y="80" width="53.5" height="50" as="geometry" />
        </mxCell>
        <mxCell id="Ge7aqxbjUbuo9fXOc1NT-164" style="edgeStyle=orthogonalEdgeStyle;curved=1;orthogonalLoop=1;jettySize=auto;html=1;exitX=0;exitY=0.5;exitDx=0;exitDy=0;exitPerimeter=0;dashed=1;fontFamily=Comic Sans MS;fontSize=8;startArrow=classic;startFill=1;endArrow=none;endFill=0;" edge="1" parent="1" source="Ge7aqxbjUbuo9fXOc1NT-162">
          <mxGeometry relative="1" as="geometry">
            <mxPoint x="590" y="840" as="targetPoint" />
          </mxGeometry>
        </mxCell>
        <mxCell id="Ge7aqxbjUbuo9fXOc1NT-162" value="Bastion SSH&lt;br&gt;Load Balancer" style="outlineConnect=0;dashed=0;verticalLabelPosition=bottom;verticalAlign=top;align=center;html=1;shape=mxgraph.aws3.application_load_balancer;fillColor=#F58534;gradientColor=none;rounded=0;sketch=0;fontFamily=Comic Sans MS;" vertex="1" parent="1">
          <mxGeometry x="1051" y="268.75" width="39" height="42" as="geometry" />
        </mxCell>
        <mxCell id="Ge7aqxbjUbuo9fXOc1NT-129" value="Issue Debugging &amp; Remediation" style="swimlane;rounded=0;labelBackgroundColor=#FFFFFF;sketch=0;fontFamily=Comic Sans MS;fontSize=10;strokeColor=#000000;fillColor=#FF3399;" vertex="1" parent="1">
          <mxGeometry x="1550" y="440" width="200" height="200" as="geometry" />
        </mxCell>
        <mxCell id="Ge7aqxbjUbuo9fXOc1NT-130" value="Host &amp;amp; Manager will provide 3 new functions&lt;br&gt;&lt;br&gt;- Crash Reports - produce a crash report and write to persistent storage on crash reports. (Noopervisor)&lt;br&gt;- State Dump - dump the application state to persistent storage when manually invoked, or based on &quot;triggering events&quot;&lt;br&gt;- Repl - remote access, debugging, issue resolution" style="text;html=1;strokeColor=none;fillColor=none;align=left;verticalAlign=middle;whiteSpace=wrap;rounded=0;labelBackgroundColor=#FFFFFF;sketch=0;fontFamily=Comic Sans MS;fontSize=10;" vertex="1" parent="1">
          <mxGeometry x="1558" y="470" width="184" height="160" as="geometry" />
        </mxCell>
        <mxCell id="Ge7aqxbjUbuo9fXOc1NT-79" value="" style="group" vertex="1" connectable="0" parent="1">
          <mxGeometry x="1810" y="390" width="460" height="210" as="geometry" />
        </mxCell>
        <mxCell id="Ge7aqxbjUbuo9fXOc1NT-76" value="" style="shape=tape;whiteSpace=wrap;html=1;rounded=0;labelBackgroundColor=#FFFFFF;sketch=0;fontFamily=Comic Sans MS;fontSize=10;strokeColor=#FF0080;fillColor=#808080;" vertex="1" parent="Ge7aqxbjUbuo9fXOc1NT-79">
          <mxGeometry x="51.111111111111114" y="36.12" width="340.74074074074076" height="159.6" as="geometry" />
        </mxCell>
        <mxCell id="Ge7aqxbjUbuo9fXOc1NT-72" value="AWS Config" style="outlineConnect=0;dashed=0;verticalLabelPosition=bottom;verticalAlign=top;align=center;html=1;shape=mxgraph.aws3.config;fillColor=#759C3E;gradientColor=none;rounded=0;labelBackgroundColor=#FFFFFF;sketch=0;fontFamily=Comic Sans MS;fontSize=10;strokeColor=#FF8000;" vertex="1" parent="Ge7aqxbjUbuo9fXOc1NT-79">
          <mxGeometry x="59.62962962962963" y="100.8" width="42.592592592592595" height="51.66" as="geometry" />
        </mxCell>
        <mxCell id="Ge7aqxbjUbuo9fXOc1NT-73" value="AWS Audit Manager" style="sketch=0;points=[[0,0,0],[0.25,0,0],[0.5,0,0],[0.75,0,0],[1,0,0],[0,1,0],[0.25,1,0],[0.5,1,0],[0.75,1,0],[1,1,0],[0,0.25,0],[0,0.5,0],[0,0.75,0],[1,0.25,0],[1,0.5,0],[1,0.75,0]];outlineConnect=0;fontColor=#232F3E;gradientColor=#F54749;gradientDirection=north;fillColor=#C7131F;strokeColor=#ffffff;dashed=0;verticalLabelPosition=bottom;verticalAlign=top;align=center;html=1;fontSize=12;fontStyle=0;aspect=fixed;shape=mxgraph.aws4.resourceIcon;resIcon=mxgraph.aws4.audit_manager;rounded=0;labelBackgroundColor=#FFFFFF;fontFamily=Comic Sans MS;" vertex="1" parent="Ge7aqxbjUbuo9fXOc1NT-79">
          <mxGeometry x="300.0025925925926" y="28.08" width="31.919999999999998" height="31.919999999999998" as="geometry" />
        </mxCell>
        <mxCell id="Ge7aqxbjUbuo9fXOc1NT-78" value="Cloud Security Management &amp; Hardening" style="swimlane;rounded=0;labelBackgroundColor=#FFFFFF;sketch=0;fontFamily=Comic Sans MS;fontSize=10;strokeColor=#FF0080;fillColor=#FF3399;" vertex="1" parent="Ge7aqxbjUbuo9fXOc1NT-79">
          <mxGeometry width="460" height="210" as="geometry" />
        </mxCell>
        <mxCell id="Ge7aqxbjUbuo9fXOc1NT-70" value="&lt;font style=&quot;font-size: 10px&quot;&gt;AWS Inspector&lt;/font&gt;" style="outlineConnect=0;dashed=0;verticalLabelPosition=bottom;verticalAlign=top;align=center;html=1;shape=mxgraph.aws3.inspector;fillColor=#759C3E;gradientColor=none;rounded=0;labelBackgroundColor=#FFFFFF;sketch=0;fontFamily=Comic Sans MS;fontSize=8;strokeColor=#FF8000;" vertex="1" parent="Ge7aqxbjUbuo9fXOc1NT-78">
          <mxGeometry x="379.99925925925925" y="138.57999999999998" width="31.944444444444446" height="42.839999999999996" as="geometry" />
        </mxCell>
        <mxCell id="Ge7aqxbjUbuo9fXOc1NT-81" value="AWS CloudTrail" style="outlineConnect=0;dashed=0;verticalLabelPosition=bottom;verticalAlign=top;align=center;html=1;shape=mxgraph.aws3.cloudtrail;fillColor=#759C3E;gradientColor=none;rounded=0;labelBackgroundColor=#FFFFFF;sketch=0;fontFamily=Comic Sans MS;fontSize=10;strokeColor=#FF0080;" vertex="1" parent="Ge7aqxbjUbuo9fXOc1NT-79">
          <mxGeometry x="217.60592592592593" y="140" width="39.611111111111114" height="44.519999999999996" as="geometry" />
        </mxCell>
        <mxCell id="Ge7aqxbjUbuo9fXOc1NT-165" value="AWS Security Hub" style="sketch=0;points=[[0,0,0],[0.25,0,0],[0.5,0,0],[0.75,0,0],[1,0,0],[0,1,0],[0.25,1,0],[0.5,1,0],[0.75,1,0],[1,1,0],[0,0.25,0],[0,0.5,0],[0,0.75,0],[1,0.25,0],[1,0.5,0],[1,0.75,0]];outlineConnect=0;fontColor=#232F3E;gradientColor=#F54749;gradientDirection=north;fillColor=#C7131F;strokeColor=#ffffff;dashed=0;verticalLabelPosition=bottom;verticalAlign=top;align=center;html=1;fontSize=12;fontStyle=0;aspect=fixed;shape=mxgraph.aws4.resourceIcon;resIcon=mxgraph.aws4.security_hub;rounded=0;labelBackgroundColor=default;fontFamily=Comic Sans MS;" vertex="1" parent="Ge7aqxbjUbuo9fXOc1NT-79">
          <mxGeometry x="160" y="60" width="38" height="38" as="geometry" />
        </mxCell>
        <mxCell id="Ge7aqxbjUbuo9fXOc1NT-168" style="edgeStyle=orthogonalEdgeStyle;curved=1;orthogonalLoop=1;jettySize=auto;html=1;exitX=0;exitY=1;exitDx=0;exitDy=0;entryX=0.07;entryY=0.4;entryDx=0;entryDy=0;entryPerimeter=0;dashed=1;fontFamily=Comic Sans MS;fontSize=8;startArrow=classic;startFill=1;endArrow=none;endFill=0;" edge="1" parent="1" source="Ge7aqxbjUbuo9fXOc1NT-78" target="Ge7aqxbjUbuo9fXOc1NT-12">
          <mxGeometry relative="1" as="geometry" />
        </mxCell>
      </root>
    </mxGraphModel>
  </diagram>
</mxfile>
